HIERARCHY
ROOT Hips
{
 OFFSET 0.000000 0.000000 0.000000
 CHANNELS 6 Xposition Yposition Zposition Yrotation Xrotation Zrotation
 JOINT Chest
 {
  OFFSET 0.000000 9.585900 0.002600
  CHANNELS 3 Yrotation Xrotation Zrotation
  JOINT Chest2
  {
   OFFSET 0.000000 9.601200 -0.005300
   CHANNELS 3 Yrotation Xrotation Zrotation
   JOINT Chest3
   {
    OFFSET 0.000000 9.561800 0.000000
    CHANNELS 3 Yrotation Xrotation Zrotation
    JOINT Chest4
    {
     OFFSET 0.000000 9.552100 0.000000
     CHANNELS 3 Yrotation Xrotation Zrotation
     JOINT Neck
     {
      OFFSET 0.000000 14.453000 0.000000
      CHANNELS 3 Yrotation Xrotation Zrotation
      JOINT Head
      {
       OFFSET 0.000000 8.936500 -0.011300
       CHANNELS 3 Yrotation Xrotation Zrotation
       End Site
       {
        OFFSET 0.000000 17.073600 -0.006000
       }
      }
     }
     JOINT RightCollar
     {
      OFFSET -2.921100 9.558500 0.000000
      CHANNELS 3 Yrotation Xrotation Zrotation
      JOINT RightShoulder
      {
       OFFSET -13.519700 0.000000 0.000000
       CHANNELS 3 Yrotation Xrotation Zrotation
       JOINT RightElbow
       {
        OFFSET 0.000000 -29.696600 0.000000
        CHANNELS 3 Yrotation Xrotation Zrotation
        JOINT RightWrist
        {
         OFFSET 0.000000 -24.004700 0.000000
         CHANNELS 3 Yrotation Xrotation Zrotation
         End Site
         {
          OFFSET 0.000000 -17.728500 0.000000
         }
        }
       }
      }
     }
     JOINT LeftCollar
     {
      OFFSET 2.921100 9.558500 0.000000
      CHANNELS 3 Yrotation Xrotation Zrotation
      JOINT LeftShoulder
      {
       OFFSET 13.519700 0.000000 0.000000
       CHANNELS 3 Yrotation Xrotation Zrotation
       JOINT LeftElbow
       {
        OFFSET 0.000000 -29.696600 0.000000
        CHANNELS 3 Yrotation Xrotation Zrotation
        JOINT LeftWrist
        {
         OFFSET 0.000000 -24.004700 0.000000
         CHANNELS 3 Yrotation Xrotation Zrotation
         End Site
         {
          OFFSET 0.000000 -17.728500 0.000000
         }
        }
       }
      }
     }
    }
   }
  }
 }
 JOINT RightHip
 {
  OFFSET -7.771700 -0.012900 -0.001300
  CHANNELS 3 Yrotation Xrotation Zrotation
  JOINT RightKnee
  {
   OFFSET 0.000000 -40.869800 0.001200
   CHANNELS 3 Yrotation Xrotation Zrotation
   JOINT RightAnkle
   {
    OFFSET 0.000000 -39.717900 0.002100
    CHANNELS 3 Yrotation Xrotation Zrotation
    JOINT RightToe
    {
     OFFSET 0.000000 -4.965400 11.033500
     CHANNELS 3 Yrotation Xrotation Zrotation
     End Site
     {
      OFFSET 0.000000 -1.423100 5.872300
     }
    }
   }
  }
 }
 JOINT LeftHip
 {
  OFFSET 7.771700 -0.012900 -0.001300
  CHANNELS 3 Yrotation Xrotation Zrotation
  JOINT LeftKnee
  {
   OFFSET 0.000000 -40.869800 0.001200
   CHANNELS 3 Yrotation Xrotation Zrotation
   JOINT LeftAnkle
   {
    OFFSET 0.000000 -39.717900 0.002100
    CHANNELS 3 Yrotation Xrotation Zrotation
    JOINT LeftToe
    {
     OFFSET 0.000000 -4.965400 11.033500
     CHANNELS 3 Yrotation Xrotation Zrotation
     End Site
     {
      OFFSET 0.000000 -1.423100 5.872300
     }
    }
   }
  }
 }
}
MOTION
Frames: 14
Frame Time: 0.008333
-245.619711 60.471013 -75.191497 157.562235 -28.861227 3.884817 4.726852 17.047405 0.552178 0.475393 1.893646 0.011120 0.845116 3.034145 -0.005305 4.092045 14.943945 0.466296 0.786035 18.359423 -0.093991 0.893443 -6.453341 -0.317117 3.334292 6.203285 -4.607411 1.271553 -12.745341 -4.397447 -30.553818 -79.117259 40.400629 -0.882103 -0.547111 -37.495456 -6.446751 3.212668 -4.748348 16.620765 -6.069653 1.423647 -46.983868 -85.317906 34.189174 -7.647129 6.397942 5.080555 2.371428 -40.754102 0.850437 -21.355125 68.630579 -16.795052 0.016300 -2.617619 -3.071414 -0.001438 -0.074727 0.006908 14.891205 -39.997220 0.029681 24.350581 63.443259 23.282552 -16.471745 -12.455047 2.047676 0.019177 0.094058 0.020131
-245.620093 60.472031 -75.191335 157.568221 -28.850825 3.887297 4.700465 17.076313 0.552225 0.476635 1.898708 0.008049 0.836110 3.036564 -0.002241 4.065666 14.958047 0.463722 0.798583 18.325178 -0.125753 0.860786 -6.446055 -0.337686 3.374284 6.125411 -4.688829 1.448438 -12.708438 -4.398622 -28.637499 -78.993039 38.242728 -0.899514 -0.327412 -37.469914 -6.433793 3.120406 -4.762466 16.485314 -6.022423 1.492710 -45.089102 -85.023765 32.378384 -7.588430 6.389086 5.119210 2.369347 -40.763646 0.850145 -21.352702 68.627468 -16.801104 0.011558 -2.614969 -3.068235 0.000343 -0.075078 0.005828 14.893578 -40.003938 0.030095 24.332718 63.438725 23.257624 -16.514862 -12.451641 2.032170 0.022980 0.092344 0.035611
-245.621218 60.472845 -75.190099 157.576536 -28.836238 3.888008 4.664580 17.143225 0.553672 0.489362 1.862860 -0.000239 0.817617 3.081591 0.005785 4.029504 14.990042 0.463220 0.789329 18.269068 -0.173539 0.856447 -6.478771 -0.365370 3.432368 5.991183 -4.779990 1.616056 -12.652011 -4.416029 -26.772580 -78.884496 36.152961 -0.896253 -0.092568 -37.435545 -6.431292 2.941667 -4.773913 16.356464 -5.967946 1.569658 -43.621698 -84.665289 31.032920 -7.536732 6.411550 5.163053 2.363165 -40.777569 0.851859 -21.351799 68.622803 -16.811019 0.014273 -2.612041 -3.069804 -0.002593 -0.074467 0.010070 14.893175 -40.013713 0.026036 24.341863 63.432531 23.255795 -16.544613 -12.458600 2.035750 0.042247 0.094314 0.037240
-245.622302 60.473583 -75.187773 157.583095 -28.819979 3.884426 4.650933 17.167308 0.557340 0.488094 1.867435 0.000351 0.811231 3.102094 0.009383 4.010500 15.012982 0.467421 0.758054 18.246718 -0.206495 0.845345 -6.511229 -0.389588 3.461921 5.899147 -4.835546 1.765737 -12.580645 -4.465454 -25.005117 -78.798484 34.194679 -0.871193 0.136404 -37.380343 -6.497031 2.798992 -4.745927 16.248280 -5.918584 1.625266 -42.777481 -84.255849 30.351229 -7.497364 6.456172 5.205198 2.354304 -40.793247 0.860799 -21.358135 68.617709 -16.825374 0.014987 -2.611388 -3.071025 -0.000914 -0.072418 0.011545 14.890591 -40.025969 0.019618 24.362972 63.428958 23.265567 -16.529070 -12.475376 2.048591 0.033567 0.103655 0.029320
-245.624251 60.474437 -75.185105 157.593387 -28.805665 3.880630 4.636780 17.190606 0.560782 0.487242 1.871811 0.001230 0.809647 3.109055 0.010830 4.001626 15.015697 0.468129 0.744979 18.221746 -0.225966 0.804281 -6.501700 -0.399470 3.478147 5.844206 -4.876059 1.882934 -12.488468 -4.519405 -23.318722 -78.744380 32.358248 -0.825562 0.357532 -37.291920 -6.525582 2.738487 -4.738595 16.066854 -5.917917 1.712560 -42.669904 -83.815634 30.435347 -7.472824 6.511912 5.247787 2.343630 -40.807428 0.870884 -21.354491 68.612313 -16.837537 0.012024 -2.610364 -3.064807 -0.000705 -0.069859 0.011643 14.884917 -40.038726 0.014759 24.332541 63.431254 23.237506 -16.563904 -12.510811 2.058474 0.017091 0.125675 0.017153
-245.628628 60.473887 -75.179642 157.612007 -28.774391 3.877738 4.617169 17.185396 0.556761 0.485392 1.883117 0.003073 0.808573 3.115176 0.012345 3.993340 15.030384 0.474995 0.708606 18.226202 -0.243705 0.788212 -6.524137 -0.417040 3.508214 5.783676 -4.936556 1.950936 -12.377718 -4.553443 -21.679379 -78.721409 30.608862 -0.756146 0.583503 -37.165674 -6.556031 2.676761 -4.742402 15.880803 -5.917323 1.817053 -43.279506 -83.361254 31.250215 -7.470425 6.569372 5.298661 2.334386 -40.838002 0.874980 -21.355759 68.599215 -16.859895 0.011728 -2.606769 -3.049842 -0.000755 -0.064921 0.009731 14.879531 -40.070614 -0.000353 24.295133 63.432281 23.203458 -16.618086 -12.517899 2.057869 0.002555 0.123920 0.014205
-245.630382 60.474547 -75.174994 157.625989 -28.760487 3.862389 4.607433 17.178489 0.566252 0.482546 1.900551 0.005543 0.807334 3.128293 0.014568 3.985370 15.057198 0.486642 0.682790 18.208620 -0.262832 0.767029 -6.534171 -0.424521 3.538504 5.718797 -4.995089 1.995821 -12.257823 -4.586515 -20.074172 -78.716047 28.923230 -0.662728 0.816953 -37.003960 -6.588256 2.611421 -4.754284 15.704992 -5.906968 1.936999 -44.483012 -82.909557 32.661059 -7.492968 6.619162 5.354059 2.319895 -40.849988 0.892009 -21.372432 68.589429 -16.879377 0.010453 -2.606969 -3.047702 0.006565 -0.062772 0.009358 14.857466 -40.089825 0.010046 24.281799 63.428284 23.185954 -16.603981 -12.519640 2.056950 0.005917 0.119909 0.011400
-245.633722 60.475303 -75.170154 157.634808 -28.746825 3.855772 4.595961 17.194200 0.569419 0.486216 1.878869 0.003033 0.804783 3.158811 0.016892 3.980835 15.070437 0.490783 0.663274 18.195174 -0.267971 0.747547 -6.549205 -0.425432 3.579227 5.667897 -5.046332 2.009106 -12.132379 -4.606084 -18.508572 -78.714575 27.296937 -0.546546 1.052988 -36.807222 -6.626545 2.563868 -4.760511 15.546410 -5.881534 2.067762 -46.116024 -82.467658 34.494219 -7.521908 6.650597 5.406988 2.319621 -40.861130 0.898010 -21.386546 68.574260 -16.902995 0.019447 -2.601699 -3.033561 -0.001302 -0.058777 0.007245 14.843612 -40.106761 0.017208 24.284346 63.419619 23.181231 -16.612961 -12.513329 2.051480 0.022387 0.111140 0.014493
-245.637166 60.476671 -75.165721 157.636861 -28.739733 3.851437 4.589993 17.247888 0.570441 0.489556 1.848874 0.005622 0.804086 3.171750 0.013831 3.976142 15.086869 0.492517 0.644302 18.175537 -0.264953 0.738485 -6.590647 -0.425183 3.594004 5.609091 -5.068276 2.042231 -12.009499 -4.645561 -16.997259 -78.707958 25.742895 -0.410299 1.293514 -36.576387 -6.642988 2.506421 -4.761412 15.375395 -5.833160 2.205469 -47.999928 -82.036154 36.564990 -7.539433 6.658488 5.458854 2.322664 -40.865137 0.904447 -21.408910 68.556096 -16.933640 0.031624 -2.596244 -3.019307 -0.007534 -0.053537 0.004502 14.836168 -40.114501 0.026417 24.291196 63.409065 23.180097 -16.592928 -12.510907 2.046148 0.030875 0.105133 0.016473
-245.639137 60.477619 -75.159451 157.628892 -28.727154 3.836468 4.601412 17.269975 0.584899 0.487486 1.850155 0.007119 0.807183 3.158618 0.014430 3.972145 15.113865 0.493546 0.633971 18.148183 -0.260252 0.728414 -6.640555 -0.417873 3.612639 5.564889 -5.104570 2.055002 -11.897954 -4.657652 -15.551911 -78.687731 24.273271 -0.264451 1.541254 -36.313946 -6.662201 2.459406 -4.760515 15.208067 -5.767838 2.343492 -49.968191 -81.617809 38.705317 -7.546929 6.644122 5.507967 2.316923 -40.875750 0.933868 -21.391402 68.533656 -16.933118 0.034880 -2.574320 -2.999215 -0.016879 -0.056955 -0.002184 14.829797 -40.130105 0.042349 24.305857 63.402097 23.188107 -16.470493 -12.522498 2.049421 0.043079 0.105325 0.011640
-245.641588 60.478838 -75.153199 157.636859 -28.716338 3.812772 4.599699 17.284802 0.599964 0.485954 1.905619 0.001059 0.808546 3.137641 0.016653 3.973624 15.069070 0.496480 0.625990 18.143431 -0.255416 0.722890 -6.685159 -0.410851 3.615139 5.560785 -5.138821 2.062965 -11.799718 -4.660762 -14.189497 -78.648523 22.907375 -0.116011 1.798957 -36.020366 -6.710587 2.448091 -4.769433 15.068261 -5.696649 2.484163 -51.872619 -81.215623 40.759971 -7.548629 6.612498 5.558946 2.307196 -40.882636 0.962241 -21.384518 68.513591 -16.932951 0.025545 -2.561514 -2.985913 -0.022937 -0.057819 -0.004678 14.813236 -40.147729 0.057903 24.336824 63.387518 23.215103 -16.387046 -12.525135 2.053029 0.066884 0.103709 0.010296
-245.646648 60.480119 -75.147227 157.646714 -28.701488 3.798883 4.593263 17.301380 0.597893 0.486072 1.910644 0.000729 0.807946 3.158400 0.014368 3.971378 15.081253 0.499777 0.625056 18.080260 -0.246066 0.728123 -6.705558 -0.415726 3.611942 5.506130 -5.176860 2.061780 -11.707109 -4.655396 -12.941151 -78.588618 21.679876 0.036058 2.068427 -35.700240 -6.758424 2.381871 -4.770817 14.941912 -5.617073 2.623032 -53.601164 -80.838885 42.610480 -7.542430 6.572868 5.618764 2.304337 -40.894621 0.977240 -21.380377 68.496570 -16.935257 0.012974 -2.554776 -2.978970 -0.020778 -0.055392 -0.002030 14.805478 -40.163758 0.059127 24.336791 63.376137 23.218925 -16.382424 -12.531384 2.054272 0.083127 0.110162 0.011921
-245.653273 60.483154 -75.144588 157.650239 -28.702577 3.799435 4.587920 17.342058 0.580725 0.486396 1.907473 0.002811 0.809552 3.143546 0.020203 3.963488 15.122782 0.493027 0.626579 18.023871 -0.227046 0.732729 -6.767116 -0.406054 3.550937 5.481312 -5.254457 2.093892 -11.646180 -4.606917 -11.821557 -78.509608 20.605684 0.191848 2.346162 -35.364190 -6.846045 2.327955 -4.773797 14.870492 -5.542405 2.758877 -55.072685 -80.493825 44.178174 -7.533054 6.529588 5.682123 2.316949 -40.889010 0.974119 -21.387765 68.483677 -16.943003 0.001647 -2.554258 -2.975990 -0.013255 -0.052652 0.001544 14.805816 -40.160000 0.054219 24.333534 63.370917 23.220311 -16.425678 -12.542168 2.056093 0.112680 0.121837 0.015184
-245.659051 60.485852 -75.140875 157.659614 -28.696325 3.784927 4.582193 17.350707 0.583972 0.485204 1.919259 -0.000864 0.811594 3.136841 0.023552 3.956164 15.160322 0.485002 0.628211 17.970928 -0.204610 0.729721 -6.873300 -0.360239 3.514537 5.438516 -5.288987 2.092911 -11.565125 -4.591323 -10.805339 -78.413982 19.656348 0.351587 2.627595 -35.019927 -6.858474 2.273667 -4.758379 14.742140 -5.454066 2.876732 -56.254777 -80.172638 45.427405 -7.524359 6.484080 5.754196 2.309461 -40.891454 0.989130 -21.390180 68.470216 -16.949232 -0.006589 -2.551016 -2.971063 -0.008103 -0.052086 0.003199 14.791292 -40.169634 0.059127 24.312411 63.374083 23.202022 -16.410155 -12.555629 2.064228 0.026603 0.124826 -0.001320
